<?xml version="1.0" encoding="UTF-8"?>
<svg width="25px" height="24px" viewBox="0 0 25 24" version="1.1" xmlns="http://www.w3.org/2000/svg" xmlns:xlink="http://www.w3.org/1999/xlink">
    <!-- Generator: Sketch 59 (86127) - https://sketch.com -->
    <title>linkedin circle copy</title>
    <desc>Created with Sketch.</desc>
    <g id="Website" stroke="none" stroke-width="1" fill="none" fill-rule="evenodd">
        <g id="SummerCamp-20---Landing-Page-" transform="translate(-173.000000, -3422.000000)" fill="#333333" fill-rule="nonzero">
            <g id="Group-30" transform="translate(129.000000, 3214.000000)">
                <g id="linkedin-circle-copy" transform="translate(44.500000, 208.000000)">
                    <path d="M11.9146195,0.210315789 C18.4948821,0.210315789 23.8292389,5.49788002 23.8292389,12.0204211 C23.8292389,18.5429621 18.4948821,23.8305263 11.9146195,23.8305263 C5.33435684,23.8305263 1.77635684e-15,18.5429621 1.77635684e-15,12.0204211 C1.77635684e-15,5.49788002 5.33435684,0.210315789 11.9146195,0.210315789 Z M8.76530973,9.34926316 L5.91823009,9.34926316 L5.91823009,17.8397895 L8.76530973,17.8397895 L8.76530973,9.34926316 Z M15.7550442,9.14989474 C14.2417699,9.14989474 13.5667965,9.97515789 13.1883186,10.5524211 L13.1883186,10.5524211 L13.1883186,9.34926316 L10.3399646,9.34926316 C10.3781947,10.1456842 10.3399646,17.8395789 10.3399646,17.8395789 L10.3399646,17.8395789 L13.1881062,17.8395789 L13.1881062,13.0976842 C13.1881062,12.8431579 13.2074336,12.5911579 13.2824071,12.4096842 C13.4888496,11.9018947 13.9563186,11.3774737 14.7432212,11.3774737 C15.7743717,11.3774737 16.1855575,12.1564211 16.1855575,13.2970526 L16.1855575,13.2970526 L16.1855575,17.8397895 L19.0334867,17.8397895 L19.0334867,12.9707368 C19.0334867,10.3633684 17.6287434,9.14989474 15.7550442,9.14989474 Z M13.1883186,10.5524211 L13.1883186,10.5802105 L13.1694159,10.5802105 C13.1745133,10.5711579 13.1825841,10.5618947 13.1883186,10.5524211 L13.1883186,10.5524211 Z M7.36056637,5.25663158 C6.38633628,5.25663158 5.74895575,5.89052632 5.74895575,6.72336842 C5.74895575,7.53852632 6.36785841,8.19073684 7.32318584,8.19073684 L7.34166372,8.19073684 C8.33500885,8.19073684 8.95263717,7.53852632 8.95263717,6.72336842 C8.93373451,5.89052632 8.33500885,5.25663158 7.36056637,5.25663158 Z" id="Combined-Shape"></path>
                </g>
            </g>
        </g>
    </g>
</svg>